<svg width="24" height="24" viewBox="0 0 24 24" fill="none" xmlns="http://www.w3.org/2000/svg">
<rect width="24" height="24" rx="12" fill="#FCFC54"/>
<g clip-path="url(#clip0_1651_13460)">
<path d="M16.6798 12.8542C16.2917 11.0029 17.0391 7.95968 17.0391 6.42741C17.0391 3.19119 6.95264 3.19119 6.95264 6.42741C6.95264 7.95968 7.70008 11.0029 7.31196 12.8542C10.4342 11.8325 13.557 11.8325 16.6793 12.8542H16.6798Z" fill="#23271A"/>
<path d="M11.9961 11.1363C13.2134 11.1363 14.2002 10.1497 14.2002 8.93263C14.2002 7.7156 13.2134 6.729 11.9961 6.729C10.7788 6.729 9.79199 7.7156 9.79199 8.93263C9.79199 10.1497 10.7788 11.1363 11.9961 11.1363Z" fill="#1C2015"/>
<path d="M11.9961 10.9876C13.2134 10.9876 14.2002 10.001 14.2002 8.78395C14.2002 7.56692 13.2134 6.58032 11.9961 6.58032C10.7788 6.58032 9.79199 7.56692 9.79199 8.78395C9.79199 10.001 10.7788 10.9876 11.9961 10.9876Z" fill="#FCFC54"/>
<path d="M13.076 8.11946H11.9236V8.57547H13.0001V9.17637H11.9236V10.2482H11.2139V7.51807H13.0765V8.11897L13.076 8.11946Z" fill="#23271A"/>
<path d="M19.9956 13.7637C20.0353 13.3058 19.8145 12.8894 19.2899 12.9907C14.2717 13.9553 9.41285 13.9607 4.71281 13.007C4.18821 12.9009 3.96437 13.3211 4.00457 13.7801C4.29194 17.066 19.7098 17.055 19.9956 13.7642V13.7637Z" fill="#1A1A1A"/>
<path d="M7.64062 16.1191C7.64062 15.6715 7.8049 15.287 8.13296 14.9655C8.46003 14.6439 8.85261 14.4836 9.3117 14.4836C9.77078 14.4836 10.1539 14.6459 10.478 14.9699C10.8036 15.2939 10.9664 15.6835 10.9664 16.138C10.9664 16.5925 10.8031 16.9835 10.476 17.3021C10.1475 17.6221 9.75143 17.7819 9.28688 17.7819C8.87594 17.7819 8.50718 17.64 8.18061 17.3557C7.82079 17.0411 7.64062 16.6292 7.64062 16.1196V16.1191Z" fill="#23271A"/>
<path d="M13.0762 16.1191C13.0762 15.6715 13.2404 15.287 13.5685 14.9655C13.8956 14.6439 14.2882 14.4836 14.7472 14.4836C15.2063 14.4836 15.5895 14.6459 15.9136 14.9699C16.2391 15.2939 16.4019 15.6835 16.4019 16.138C16.4019 16.5925 16.2387 16.9835 15.9116 17.3021C15.583 17.6221 15.187 17.7819 14.7224 17.7819C14.3115 17.7819 13.9427 17.64 13.6162 17.3557C13.2563 17.0411 13.0762 16.6292 13.0762 16.1196V16.1191Z" fill="#23271A"/>
<path d="M8.12452 16.1252C8.12452 16.477 8.24264 16.7658 8.47888 16.9926C8.71364 17.2193 8.98512 17.3325 9.29283 17.3325C9.62685 17.3325 9.90825 17.2173 10.1375 16.9866C10.3668 16.7534 10.4815 16.4691 10.4815 16.1336C10.4815 15.7982 10.3683 15.5099 10.1415 15.2807C9.91619 15.0499 9.63727 14.9348 9.30474 14.9348C8.97222 14.9348 8.69428 15.0499 8.46598 15.2807C8.23768 15.5089 8.12402 15.7903 8.12402 16.1252H8.12452Z" fill="#FCFC54"/>
<path d="M13.5606 16.1252C13.5606 16.477 13.6787 16.7658 13.9149 16.9926C14.1497 17.2193 14.4212 17.3325 14.7289 17.3325C15.0629 17.3325 15.3443 17.2173 15.5736 16.9866C15.8029 16.7534 15.9175 16.4691 15.9175 16.1336C15.9175 15.7982 15.8044 15.5099 15.5776 15.2807C15.3522 15.0499 15.0733 14.9348 14.7408 14.9348C14.4083 14.9348 14.1303 15.0499 13.902 15.2807C13.6737 15.5089 13.5601 15.7903 13.5601 16.1252H13.5606Z" fill="#FCFC54"/>
<path d="M11.8537 18.6066C11.6681 18.7058 9.33888 19.9478 9.2421 19.9999L9.02968 19.8401L4.90039 16.7329L9.54435 19.0005L9.01678 19.0085L11.0546 17.3899L11.8537 18.6071V18.6066Z" fill="#23271A"/>
<path d="M12.9548 17.3899L14.9927 19.0085L14.4651 19.0006L19.109 16.7324L14.9798 19.8396L14.7673 19.9999L14.4522 19.8317L12.1558 18.6066L12.9548 17.3899Z" fill="#23271A"/>
<path d="M19.9956 13.7638C20.0353 13.3058 19.8145 12.8894 19.2899 12.9907C14.2717 13.9553 9.41285 13.9607 4.71281 13.007C4.18821 12.9009 3.96437 13.3211 4.00457 13.7801C4.29194 17.066 19.7098 17.0551 19.9956 13.7642V13.7638Z" fill="#23271A"/>
</g>
<defs>
<clipPath id="clip0_1651_13460">
<rect width="16" height="16" fill="white" transform="translate(4 4)"/>
</clipPath>
</defs>
</svg>
