<svg width="24" height="24" viewBox="0 0 24 24" fill="none" xmlns="http://www.w3.org/2000/svg">
<path d="M3.74273 9.3382C2.90288 8.54278 2.30737 7.51042 2.30737 6.28026L2.30949 6.15016C2.37718 4.06006 4.09813 2.37824 6.18506 2.3116H19.5C19.849 2.32324 20.1293 2.57392 20.1293 2.92721V14.1901C20.4371 14.2461 20.5841 14.2832 20.8793 14.3911C21.1098 14.4746 21.4377 14.6608 21.4377 14.6608V2.92721C21.4176 1.85889 20.5725 1 19.501 1H6.18612C3.31435 1.0476 1 3.39368 1 6.28026C1 7.95679 1.76263 9.38474 3.015 10.3917C3.09857 10.4584 3.18107 10.5461 3.40531 10.5451C3.79773 10.544 4.07275 10.2362 4.05688 9.89458C4.04313 9.61322 3.92466 9.50956 3.74273 9.33715V9.3382Z" fill="white"/>
<path d="M19.1599 14.937H8.7157C8.01441 14.9434 7.44746 15.5135 7.44746 16.2158V17.7136C7.46756 18.4075 8.05884 19.0019 8.75695 19.0019H9.53333V17.7136H8.75695V16.2476H9.18005C10.498 16.2476 11.4679 17.4746 11.4679 18.784C11.4679 19.9433 10.4123 21.4305 8.63848 21.311C7.0635 21.2052 6.21836 19.8069 6.21942 18.784V6.05409C6.21942 5.47867 5.75295 5.01221 5.17754 5.01221H4.13672V6.31112H4.91099V18.7819C4.87185 21.3184 6.71762 22.5962 8.63954 22.5962L19.1588 22.6268C21.2796 22.6268 22.9995 20.9048 22.9995 18.7809C22.9995 16.6569 21.2806 14.9349 19.1588 14.9349L19.1599 14.937ZM21.691 18.8665C21.6477 20.2289 20.5307 21.3195 19.1599 21.3195L11.8392 21.2909C12.4241 20.6161 12.7764 19.7381 12.7764 18.783C12.7764 17.2799 11.8805 16.2465 11.8805 16.2465H19.1599C20.5582 16.2465 21.6921 17.3815 21.6921 18.783V18.8665H21.691Z" fill="white"/>
<path d="M16.3496 5.24854H8.47791V6.54745H16.3507C16.7093 6.54745 17.0002 6.25657 17.0002 5.89799C17.0002 5.53941 16.7093 5.24854 16.3507 5.24854H16.3496Z" fill="white"/>
<path d="M16.3496 11.377H8.47791V12.6759H16.3507C16.7093 12.6759 17.0002 12.385 17.0002 12.0264C17.0002 11.6678 16.7093 11.377 16.3507 11.377H16.3496Z" fill="white"/>
<path d="M17.7353 8.31274H8.47791V9.61165H17.7353C18.0939 9.61165 18.3847 9.32077 18.3847 8.9622C18.3847 8.60362 18.0939 8.31274 17.7353 8.31274Z" fill="white"/>
</svg>
