<svg width="24" height="24" viewBox="0 0 24 24" fill="none" xmlns="http://www.w3.org/2000/svg">
<path d="M17.1436 8.7231C16.7781 8.51637 16.3081 8.51637 15.8903 8.7231L12.9661 10.4286L10.9817 11.5139L8.10966 13.2194C7.74413 13.4261 7.27415 13.4261 6.8564 13.2194L4.61097 11.8757C4.24543 11.6689 3.98433 11.2555 3.98433 10.7904V8.20628C3.98433 7.79283 4.19321 7.37938 4.61097 7.12097L6.8564 5.82893C7.22193 5.62221 7.69191 5.62221 8.10966 5.82893L10.3551 7.17265C10.7206 7.37938 10.9817 7.79283 10.9817 8.25796V9.96345L12.9661 8.82646V7.06929C12.9661 6.65584 12.7572 6.24238 12.3394 5.98398L8.16188 3.55495C7.79634 3.34822 7.32637 3.34822 6.90862 3.55495L2.62663 6.03566C2.20888 6.24238 2 6.65584 2 7.06929V11.9274C2 12.3408 2.20888 12.7543 2.62663 13.0127L6.8564 15.4417C7.22193 15.6484 7.69191 15.6484 8.10966 15.4417L10.9817 13.7879L12.9661 12.6509L15.8381 10.9971C16.2037 10.7904 16.6736 10.7904 17.0914 10.9971L19.3368 12.2891C19.7024 12.4958 19.9634 12.9093 19.9634 13.3744V15.9585C19.9634 16.372 19.7546 16.7854 19.3368 17.0438L17.1436 18.3359C16.7781 18.5426 16.3081 18.5426 15.8903 18.3359L13.6449 17.0438C13.2794 16.8371 13.0183 16.4236 13.0183 15.9585V14.3047L11.0339 15.4417V17.1472C11.0339 17.5606 11.2428 17.9741 11.6606 18.2325L15.8903 20.6615C16.2559 20.8682 16.7258 20.8682 17.1436 20.6615L21.3734 18.2325C21.7389 18.0258 22 17.6123 22 17.1472V12.2374C22 11.824 21.7911 11.4105 21.3734 11.1521L17.1436 8.7231Z" fill="#8247E5"/>
</svg>
