<svg width="24" height="24" viewBox="0 0 24 24" fill="none" xmlns="http://www.w3.org/2000/svg">
<path d="M22.6709 14.661C21.2016 20.5539 15.2323 24.1402 9.33806 22.6707C3.44625 21.2015 -0.14047 15.2326 1.32947 9.34017C2.79812 3.44661 8.76736 -0.139972 14.6598 1.32916C20.5537 2.79829 24.1402 8.76788 22.6707 14.6611L22.6708 14.661H22.6709Z" fill="#F7931A"/>
<path d="M16.8511 10.4328C17.0701 8.96895 15.9555 8.18207 14.4314 7.65714L14.9258 5.67421L13.7186 5.37344L13.2373 7.30416C12.9199 7.22501 12.594 7.15044 12.2701 7.07651L12.7549 5.13305L11.5484 4.83228L11.0537 6.81456C10.7911 6.75477 10.5331 6.69568 10.2829 6.63342L10.2843 6.62718L8.61951 6.21151L8.29838 7.50073C8.29838 7.50073 9.19402 7.70601 9.17515 7.71865C9.664 7.84065 9.7524 8.16422 9.73772 8.42069L9.1745 10.6797C9.20816 10.6883 9.25183 10.7006 9.30001 10.72C9.25973 10.71 9.21687 10.6991 9.1724 10.6884L8.38296 13.853C8.32322 14.0015 8.17158 14.2243 7.8298 14.1397C7.8419 14.1572 6.95238 13.9208 6.95238 13.9208L6.35303 15.3025L7.92401 15.6941C8.21626 15.7674 8.50266 15.844 8.7847 15.9161L8.28515 17.9218L9.49095 18.2226L9.98567 16.2382C10.3151 16.3276 10.6348 16.4101 10.9477 16.4878L10.4547 18.4629L11.6619 18.7636L12.1614 16.7617C14.22 17.1513 15.7678 16.9942 16.4193 15.1325C16.9443 13.6336 16.3932 12.769 15.3102 12.2052C16.099 12.0233 16.6932 11.5045 16.8516 10.433L16.8512 10.4327L16.8511 10.4328ZM14.093 14.3001C13.7199 15.799 11.1959 14.9887 10.3776 14.7855L11.0405 12.1283C11.8587 12.3326 14.4829 12.7368 14.093 14.3001H14.093ZM14.4663 10.4111C14.126 11.7745 12.0252 11.0818 11.3438 10.912L11.9448 8.50209C12.6262 8.67194 14.8208 8.98895 14.4664 10.4111H14.4663Z" fill="white"/>
</svg>
