<svg width="24" height="24" viewBox="0 0 24 24" fill="none" xmlns="http://www.w3.org/2000/svg">
<g clip-path="url(#clip0_2365_1525)">
<mask id="mask0_2365_1525" style="mask-type:luminance" maskUnits="userSpaceOnUse" x="1" y="1" width="23" height="22">
<path d="M23.0001 1H1V23.0001H23.0001V1Z" fill="white"/>
</mask>
<g mask="url(#mask0_2365_1525)">
<mask id="mask1_2365_1525" style="mask-type:alpha" maskUnits="userSpaceOnUse" x="0" y="1" width="23" height="22">
<path d="M11.9991 23.0001C18.0742 23.0001 22.9991 18.0752 22.9991 12C22.9991 5.92489 18.0742 1 11.9991 1C5.92392 1 0.999023 5.92489 0.999023 12C0.999023 18.0752 5.92392 23.0001 11.9991 23.0001Z" fill="#D9D9D9"/>
</mask>
<g mask="url(#mask1_2365_1525)">
<path d="M26.727 -3.78247H-2.39563V25.3401H26.727V-3.78247Z" fill="#A1723A"/>
<g filter="url(#filter0_f_2365_1525)">
<path d="M12.8391 22.5369C19.3219 22.5369 24.5773 17.2831 24.5773 10.8021C24.5773 4.32121 19.3219 -0.932617 12.8391 -0.932617C6.3563 -0.932617 1.10095 4.32121 1.10095 10.8021C1.10095 17.2831 6.3563 22.5369 12.8391 22.5369Z" fill="#531002"/>
</g>
<g filter="url(#filter1_f_2365_1525)">
<path d="M14.1041 18.8231C19.3621 18.8231 23.6245 14.5591 23.6245 9.29925C23.6245 4.03936 19.3621 -0.224609 14.1041 -0.224609C8.84607 -0.224609 4.58362 4.03936 4.58362 9.29925C4.58362 14.5591 8.84607 18.8231 14.1041 18.8231Z" fill="#2B5DF0"/>
</g>
<g filter="url(#filter2_f_2365_1525)">
<path d="M13.9308 19.3672C19.4124 19.3672 23.8561 14.9221 23.8561 9.43863C23.8561 3.9552 19.4124 -0.48999 13.9308 -0.48999C8.44929 -0.48999 4.00562 3.9552 4.00562 9.43863C4.00562 14.9221 8.44929 19.3672 13.9308 19.3672Z" fill="url(#paint0_radial_2365_1525)"/>
</g>
<g filter="url(#filter3_f_2365_1525)">
<path d="M15.5778 11.9378C18.3392 11.9378 20.5778 9.6992 20.5778 6.93777C20.5778 4.17633 18.3392 1.93774 15.5778 1.93774C12.8163 1.93774 10.5778 4.17633 10.5778 6.93777C10.5778 9.6992 12.8163 11.9378 15.5778 11.9378Z" fill="#FCB8D4"/>
</g>
<g filter="url(#filter4_f_2365_1525)">
<path d="M14.248 26.8706C24.1572 26.8706 32.1902 18.8376 32.1902 8.92835C32.1902 -0.980892 24.1572 -9.01392 14.248 -9.01392C4.33869 -9.01392 -3.69434 -0.980892 -3.69434 8.92835C-3.69434 18.8376 4.33869 26.8706 14.248 26.8706Z" fill="url(#paint1_radial_2365_1525)" fill-opacity="0.9"/>
</g>
</g>
</g>
</g>
<defs>
<filter id="filter0_f_2365_1525" x="-1.37277" y="-3.40634" width="28.4238" height="28.4169" filterUnits="userSpaceOnUse" color-interpolation-filters="sRGB">
<feFlood flood-opacity="0" result="BackgroundImageFix"/>
<feBlend mode="normal" in="SourceGraphic" in2="BackgroundImageFix" result="shape"/>
<feGaussianBlur stdDeviation="1.23686" result="effect1_foregroundBlur_2365_1525"/>
</filter>
<filter id="filter1_f_2365_1525" x="-0.363842" y="-5.17207" width="28.9358" height="28.9425" filterUnits="userSpaceOnUse" color-interpolation-filters="sRGB">
<feFlood flood-opacity="0" result="BackgroundImageFix"/>
<feBlend mode="normal" in="SourceGraphic" in2="BackgroundImageFix" result="shape"/>
<feGaussianBlur stdDeviation="2.47373" result="effect1_foregroundBlur_2365_1525"/>
</filter>
<filter id="filter2_f_2365_1525" x="2.15032" y="-2.34529" width="23.5611" height="23.5678" filterUnits="userSpaceOnUse" color-interpolation-filters="sRGB">
<feFlood flood-opacity="0" result="BackgroundImageFix"/>
<feBlend mode="normal" in="SourceGraphic" in2="BackgroundImageFix" result="shape"/>
<feGaussianBlur stdDeviation="0.927648" result="effect1_foregroundBlur_2365_1525"/>
</filter>
<filter id="filter3_f_2365_1525" x="6.86716" y="-1.77286" width="17.4213" height="17.4212" filterUnits="userSpaceOnUse" color-interpolation-filters="sRGB">
<feFlood flood-opacity="0" result="BackgroundImageFix"/>
<feBlend mode="normal" in="SourceGraphic" in2="BackgroundImageFix" result="shape"/>
<feGaussianBlur stdDeviation="1.8553" result="effect1_foregroundBlur_2365_1525"/>
</filter>
<filter id="filter4_f_2365_1525" x="-5.54963" y="-10.8692" width="39.5951" height="39.5951" filterUnits="userSpaceOnUse" color-interpolation-filters="sRGB">
<feFlood flood-opacity="0" result="BackgroundImageFix"/>
<feBlend mode="normal" in="SourceGraphic" in2="BackgroundImageFix" result="shape"/>
<feGaussianBlur stdDeviation="0.927648" result="effect1_foregroundBlur_2365_1525"/>
</filter>
<radialGradient id="paint0_radial_2365_1525" cx="0" cy="0" r="1" gradientUnits="userSpaceOnUse" gradientTransform="translate(15.6049 6.63758) rotate(128.228) scale(18.7449 18.7435)">
<stop offset="0.286458" stop-color="#387AFA"/>
<stop offset="0.647782" stop-color="#387AFA" stop-opacity="0"/>
</radialGradient>
<radialGradient id="paint1_radial_2365_1525" cx="0" cy="0" r="1" gradientUnits="userSpaceOnUse" gradientTransform="translate(14.248 8.92835) rotate(90) scale(17.9422)">
<stop offset="0.598958" stop-opacity="0"/>
<stop offset="0.671875"/>
<stop offset="0.734375" stop-opacity="0"/>
</radialGradient>
<clipPath id="clip0_2365_1525">
<rect width="22" height="22" fill="white" transform="translate(1 1)"/>
</clipPath>
</defs>
</svg>
