<svg width="24" height="24" viewBox="0 0 24 24" fill="none" xmlns="http://www.w3.org/2000/svg">
<g clip-path="url(#clip0_2368_1937)">
<path d="M22.9633 11.2667C22.56 5.21667 17.3166 0.633334 11.23 1.03667C8.2233 1.22 5.5833 2.65 3.74997 4.74L3.7133 4.77667C1.87997 6.90333 0.853304 9.72667 1.03664 12.7333C1.0733 13.0267 1.0733 13.32 1.14664 13.5767V13.6133C1.1833 13.7967 1.21997 13.98 1.25664 14.1633C1.2933 14.3467 1.32997 14.4933 1.36664 14.6767C2.6133 19.7367 7.3433 23.33 12.7333 22.9633C18.82 22.56 23.4033 17.3167 22.9633 11.2667ZM20.58 11.4133C20.6166 12.1467 20.58 12.88 20.4333 13.5767C19.6266 11.6333 18.05 10.2033 16.6566 9.43333C16.95 6.13333 15.8133 4.74 14.53 4.52C13.54 4.33667 12.5866 4.99667 12.4033 5.98667C12.4033 6.02333 12.4033 6.06 12.4033 6.09667C12.2566 7.08667 12.99 8.04 13.98 8.15C14.0533 8.15 14.1633 8.15 14.2366 8.15C14.2366 8.26 14.2366 8.37 14.2366 8.51667C13.0633 8.22333 11.9633 8.15 10.9733 8.26C10.6066 8.29667 10.24 8.33333 9.83664 8.40667C9.94664 7.30667 10.3866 6.02333 11.1933 5.10667C11.9633 4.22667 13.1366 3.71333 14.42 3.86C14.6766 3.89667 14.9333 3.93333 15.1533 4.00667H15.19C18.16 5.25333 20.36 8.04 20.58 11.4133ZM12.9166 13.1C12.6233 13.5033 12.33 13.87 11.9633 14.2C11.45 13.65 10.9733 13.0267 10.6433 12.33C10.6433 12.2933 10.6066 12.2567 10.6066 12.22C10.3866 11.78 10.24 11.3033 10.13 10.8633C10.9 10.68 11.67 10.6067 12.4033 10.6433H12.5133C12.99 10.68 13.4666 10.7533 13.9433 10.9C13.6866 11.67 13.3566 12.44 12.9166 13.1ZM9.13997 3.89667C7.85664 5.58333 7.41664 7.63667 7.41664 9.21333C4.40997 10.6067 3.78664 12.2933 4.22664 13.5033C4.22664 13.54 4.2633 13.5767 4.2633 13.6133C4.66664 14.5667 5.72997 15.0067 6.6833 14.6033C7.63664 14.2 8.07664 13.1367 7.6733 12.1833C7.63664 12.11 7.59997 12.0367 7.5633 11.9633C7.6733 11.89 7.74664 11.8533 7.85664 11.78C8.18664 12.9533 8.69997 13.9067 9.24997 14.75C9.46997 15.0433 9.68997 15.3733 9.94664 15.63C8.91997 16.07 7.63664 16.3267 6.42664 16.1067C5.2533 15.8867 4.2633 15.1167 3.7133 13.9433C3.6033 13.7233 3.52997 13.4667 3.4933 13.2467C3.45664 13.0267 3.45664 12.8067 3.41997 12.6233C3.1633 8.62667 5.5833 5.14333 9.13997 3.89667ZM12.5866 20.58C10.24 20.7267 8.07664 19.9567 6.38997 18.5267C8.47997 18.82 10.4966 18.16 11.8533 17.3533C14.5666 19.26 16.3266 18.9667 17.17 17.9767C17.83 17.2067 17.7566 16.0333 16.9866 15.3733C16.95 15.3367 16.9133 15.3367 16.9133 15.3C16.1066 14.6767 14.97 14.8233 14.3466 15.63C14.31 15.7033 14.2366 15.7767 14.2 15.85C14.09 15.8133 13.98 15.74 13.87 15.6667C14.64 14.86 15.2633 13.98 15.74 12.9533C15.9233 12.6233 16.07 12.2567 16.18 11.9267C17.0966 12.5867 17.9766 13.5767 18.3433 14.75C18.71 15.8867 18.5633 17.1333 17.83 18.16C17.6833 18.3433 17.5 18.5633 17.3166 18.71C15.96 19.8467 14.31 20.47 12.5866 20.58Z" fill="white"/>
<g opacity="0.3">
<path d="M3.75005 4.73994C5.58338 2.64994 8.22338 1.21994 11.2667 1.0366C12.5134 0.926602 13.7967 1.07327 15.0434 1.40327C15.0434 1.40327 14.6034 1.3666 14.3834 1.3666C12.4034 1.3666 10.7167 2.09994 9.47005 3.49327C9.41505 3.54827 9.36921 3.61244 9.32338 3.6766C9.27755 3.74077 9.23171 3.80494 9.17671 3.85994C7.85671 4.3366 6.68338 5.1066 5.73005 6.13327C5.67387 6.0987 5.60802 6.05853 5.53495 6.01396C4.98802 5.68031 4.03683 5.10006 3.71338 4.7766L3.75005 4.73994Z" fill="white"/>
<path d="M8.37 8.84679C8.40666 8.82845 8.43416 8.81929 8.46166 8.81012C8.48916 8.80095 8.51667 8.79178 8.55333 8.77345L8.55813 8.7422C8.97748 8.59916 9.41494 8.48954 9.83667 8.41334C9.83667 8.88743 9.83684 9.3252 9.87334 9.72664C9.91 10.0933 9.98334 10.4966 10.0933 10.8633C10.8633 10.68 11.6333 10.6066 12.3667 10.6433H12.4767C12.9533 10.68 13.43 10.7533 13.9067 10.9C14.0167 10.5333 14.09 10.1667 14.1633 9.80001C14.2367 9.32336 14.2367 8.88333 14.2367 8.51667C13.0633 8.22334 11.9633 8.14998 10.9733 8.25998C10.618 8.29551 10.2627 8.33104 9.87408 8.39993C9.9749 7.40345 10.3462 6.25765 11.0152 5.37059C10.9637 5.45085 10.9131 5.53393 10.8633 5.61989C10.9733 5.43656 11.1199 5.25323 11.2666 5.10656C11.934 4.34388 12.9043 3.85662 13.9627 3.83573C14.1251 3.83315 14.29 3.84106 14.4567 3.86012C14.7134 3.89678 14.9701 3.93345 15.1901 4.00678H15.2267C16.1801 4.41012 17.0233 4.92323 17.7933 5.61989C18.1599 5.21656 18.8566 4.73989 18.8566 4.73989C18.8566 4.73989 17.7933 3.63989 16.1799 3.30989C15.5284 3.18378 14.4069 3.04562 13.2644 3.4756C12.6497 3.38042 12.0274 3.34837 11.4134 3.38345C10.6067 3.45678 9.87339 3.64012 9.14006 3.89678C7.85672 5.54678 7.41672 7.63678 7.45339 9.21345C7.54505 9.17679 7.6367 9.13096 7.72836 9.08513C7.82002 9.0393 7.91173 8.99345 8.00339 8.95679C8.12425 8.90391 8.24823 8.85414 8.37436 8.80749L8.37 8.84679Z" fill="white"/>
<path d="M12.5867 20.5801C10.24 20.7268 8.07667 19.9568 6.39 18.5268C6.3121 18.5073 6.2342 18.4982 6.15081 18.4884C6.07719 18.4797 5.9993 18.4706 5.91334 18.4534C4.08 18.0868 2.57667 16.9868 1.58667 15.2634C1.47667 15.0801 1.36667 14.8968 1.29333 14.6768C2.61334 19.7368 7.34334 23.3301 12.7333 22.9634C12.7599 22.5645 12.6901 21.7799 12.6357 21.1691C12.6151 20.9377 12.5967 20.7312 12.5867 20.5801Z" fill="white"/>
<path d="M20.58 11.4132C20.9834 11.3766 22.6334 11.2299 22.9634 11.2666C23.1834 14.6032 21.9 17.7199 19.6267 19.8832C19.7733 19.7 19.8833 19.5167 19.9932 19.3335C20.9832 17.6468 21.1667 15.7766 20.58 14.0166C20.5434 13.8699 20.5067 13.7232 20.4334 13.5766C20.58 12.8799 20.6167 12.1466 20.58 11.4132Z" fill="white"/>
<path d="M17.3166 18.7467C17.4999 18.6 17.6833 18.38 17.8299 18.1967C18.3116 17.5223 18.5402 16.7372 18.5364 15.966C18.5328 15.5723 18.4687 15.1785 18.3467 14.7969L18.3433 14.7867C18.3274 14.7469 18.3114 14.7054 18.2952 14.6629C18.2364 14.5096 18.1727 14.3436 18.0866 14.2V14.1633C18.1045 14.1949 18.122 14.2264 18.139 14.2578C17.7046 13.3161 16.9555 12.5216 16.1801 11.9633C16.4001 11.34 16.5467 10.7167 16.6201 10.0567C16.6567 9.83668 16.6934 9.61668 16.6934 9.43335C18.0867 10.24 19.6634 11.6332 20.4334 13.5766C20.1836 15.0001 19.5767 16.3046 18.7052 17.3857C18.4852 18.5511 17.8221 19.4261 17.3899 19.92C16.2899 21.1667 14.8233 21.5333 14.8233 21.5333C14.8233 21.5333 14.7866 20.69 14.6033 20.1767C15.5566 19.8833 16.4733 19.4067 17.2799 18.7833L17.3166 18.7467Z" fill="white"/>
<path d="M3.71327 13.9433C3.60327 13.7233 3.52994 13.4666 3.49327 13.2466V13.2099C3.34661 12.1833 3.38327 11.1566 3.60327 10.1666C3.05327 10.0566 2.31994 9.68994 2.31994 9.68994C2.31994 9.68994 1.91661 11.1566 2.42994 12.7333C2.63506 13.3486 3.06969 14.3542 3.97136 15.1272C4.49601 16.4491 5.33011 17.6183 6.39 18.5268C8.48 18.8201 10.4967 18.1599 11.8533 17.3532C11.67 17.2432 11.5233 17.1332 11.34 16.9866C10.8267 16.5832 10.35 16.1432 9.91 15.6299C8.88333 16.0699 7.6 16.3266 6.39 16.1066C6.16837 16.065 5.95327 16.0038 5.74645 15.924C4.87579 15.5502 4.12745 14.89 3.71327 13.9433Z" fill="white"/>
<path d="M14.2733 8.14999H14.0167C12.99 8.03999 12.2933 7.08666 12.44 6.05999C12.8433 4.84999 13.3567 5.06999 13.5033 5.21666C13.7233 5.43666 13.9433 5.83999 14.09 6.42666C14.2 7.01333 14.2733 8.14999 14.2733 8.14999Z" fill="white"/>
<path d="M7.67329 12.1834L7.56329 11.9634C7.56329 11.9634 6.60996 12.5867 6.16996 12.99C5.72996 13.3934 5.50996 13.7967 5.43662 14.09C5.39996 14.31 5.47329 14.86 6.71996 14.6034C7.63662 14.2 8.07662 13.1367 7.67329 12.1834Z" fill="white"/>
<path d="M14.2367 15.7767C14.2642 15.7401 14.2917 15.7034 14.31 15.6668C14.9333 14.8601 16.1067 14.6768 16.9133 15.3368C17.7567 16.2901 17.3167 16.6201 17.0967 16.6934C16.8033 16.7668 16.3633 16.7668 15.7767 16.5834C15.19 16.4001 14.1633 15.8868 14.1633 15.8868C14.1817 15.8501 14.2092 15.8134 14.2367 15.7767Z" fill="white"/>
<path d="M13.9434 10.8999C13.7234 11.6699 13.3934 12.3666 12.99 12.9899C12.9717 13.0082 12.9625 13.0266 12.9534 13.0449C12.9442 13.0632 12.935 13.0816 12.9167 13.0999C12.6234 13.5032 12.33 13.8699 11.9634 14.1999C12.22 14.4566 12.4767 14.7132 12.77 14.9699C13.1 15.2266 13.4667 15.4832 13.8334 15.7032C14.6034 14.8966 15.2267 14.0166 15.7034 12.9899C15.8193 12.7812 15.9059 12.5578 15.991 12.3384C16.0405 12.2108 16.0895 12.0845 16.1434 11.9632C15.74 11.6699 15.3734 11.4499 15.0067 11.3032C14.6767 11.1566 14.31 11.0099 13.9434 10.8999Z" fill="white"/>
<path d="M11.9634 14.1999C11.45 13.6499 10.9733 13.0266 10.6433 12.3299C10.6433 12.3116 10.6341 12.2933 10.625 12.2749C10.6158 12.2566 10.6066 12.2383 10.6066 12.2199C10.3866 11.7799 10.24 11.3033 10.13 10.8633C9.76331 10.9366 9.39664 11.0466 9.06664 11.1933C8.74273 11.3111 8.41881 11.4762 8.11388 11.6316L8.11295 11.632C8.03851 11.67 7.96521 11.7073 7.89331 11.7433C8.22331 12.9166 8.73664 13.8699 9.28664 14.7133C9.33697 14.7804 9.3873 14.8494 9.43806 14.919C9.60922 15.1538 9.78536 15.3953 9.98331 15.5933C10.4233 15.4099 10.8266 15.1899 11.12 14.9333C11.4133 14.7499 11.7067 14.4932 11.9634 14.1999Z" fill="white"/>
</g>
</g>
<defs>
<clipPath id="clip0_2368_1937">
<rect width="22" height="22" fill="white" transform="translate(1 1)"/>
</clipPath>
</defs>
</svg>
