<svg width="24" height="24" viewBox="0 0 24 24" fill="none" xmlns="http://www.w3.org/2000/svg">
<path d="M12 0C5.372 0 0 5.372 0 12C0 18.628 5.372 24 12 24C18.628 24 24 18.628 24 12C24 5.372 18.628 0 12 0ZM19.1387 12.5227L15.0947 14.816L13.7253 13.932V11.9867L15.1253 12.764L17.3027 11.468V8.97067L15.108 7.72533L12.924 8.964V16.06L8.86133 18.3747L4.86133 16.092V11.4853L8.84 9.18133L10.248 9.95067V12.04L8.76 11.316L6.71467 12.4787V15.0453L8.84533 16.2853L11.0627 15.0427V7.91467L15.096 5.62667L19.14 7.904V12.5227H19.1387Z" fill="white"/>
</svg>
