<svg width="38" height="24" viewBox="0 0 38 24" fill="none" xmlns="http://www.w3.org/2000/svg">
<path d="M21.4316 16.0548L21.4337 3.29925C21.4136 2.23108 20.5686 1.37231 19.4973 1.37231H6.18537C3.31401 1.41991 1 3.76564 1 6.65181C1 7.62691 1.26017 8.45711 1.66099 9.18474C1.99519 9.79179 2.5261 10.364 3.05278 10.7944C3.19662 10.9118 3.12893 10.8684 3.58052 11.1455C4.20344 11.5284 4.91837 11.7177 4.91837 11.7177L4.91309 19.3461C4.92789 19.7067 4.96808 20.0536 5.05798 20.3762C5.35516 21.4496 6.09864 22.2767 7.11393 22.6775C7.53802 22.8446 8.01817 22.9577 8.52687 22.9609L19.1599 23C21.2804 23 23 21.2783 23 19.1546C23 17.8834 22.3834 16.756 21.4337 16.0559L21.4316 16.0548Z" fill="#FFEEDA"/>
<path d="M21.6885 19.2361C21.6452 20.5983 20.5284 21.6887 19.1577 21.6887L11.8381 21.6601C12.423 20.9854 12.7752 20.1076 12.7752 19.1526C12.7752 17.6497 11.8794 16.6165 11.8794 16.6165H19.1577C20.5559 16.6165 21.6896 17.7513 21.6896 19.1526V19.2361H21.6885Z" fill="#EBC28E"/>
<path d="M3.74233 9.7093C2.90261 8.91399 2.30718 7.88178 2.30718 6.65181L2.3093 6.52172C2.37698 4.43192 4.09768 2.75036 6.18431 2.68373H19.4973C19.8463 2.69536 20.1265 2.94601 20.1265 3.29925V14.5605C20.4343 14.6165 20.5813 14.6535 20.8764 14.7614C21.1069 14.845 21.4348 15.0311 21.4348 15.0311V3.29925C21.4147 2.23108 20.5697 1.37231 19.4983 1.37231H6.18537C3.31401 1.41991 1 3.76564 1 6.65181C1 8.32809 1.76252 9.75584 3.01471 10.7627C3.09826 10.8293 3.18075 10.9171 3.40496 10.916C3.79733 10.915 4.0723 10.6072 4.05644 10.2656C4.04269 9.98428 3.92424 9.88063 3.74233 9.70824V9.7093Z" fill="#190602"/>
<path d="M19.1579 15.3081H8.71527C8.01409 15.3145 7.44722 15.8845 7.44722 16.5868V18.0843C7.46732 18.7781 8.05851 19.3725 8.75652 19.3725H9.53279V18.0843H8.75652V16.6185H9.17955C10.4973 16.6185 11.4671 17.8453 11.4671 19.1546C11.4671 20.3137 10.4116 21.8007 8.63807 21.6812C7.06332 21.5754 6.2183 20.1773 6.21936 19.1546V6.42649C6.21936 5.85116 5.75296 5.38477 5.17763 5.38477H4.13696V6.68349H4.91112V19.1525C4.87199 21.6886 6.71748 22.9662 8.63913 22.9662L19.1569 22.9968C21.2773 22.9968 22.997 21.2751 22.997 19.1514C22.997 17.0278 21.2784 15.306 19.1569 15.306L19.1579 15.3081ZM21.6887 19.2371C21.6454 20.5993 20.5286 21.6896 19.1579 21.6896L11.8383 21.6611C12.4232 20.9863 12.7754 20.1085 12.7754 19.1535C12.7754 17.6507 11.8796 16.6174 11.8796 16.6174H19.1579C20.5561 16.6174 21.6898 17.7522 21.6898 19.1535V19.2371H21.6887Z" fill="#190602"/>
<path d="M16.3478 5.61963H8.47717V6.91835H16.3488C16.7073 6.91835 16.9982 6.62751 16.9982 6.26899C16.9982 5.91047 16.7073 5.61963 16.3488 5.61963H16.3478Z" fill="#190602"/>
<path d="M16.3478 11.7485H8.47717V13.0473H16.3488C16.7073 13.0473 16.9982 12.7564 16.9982 12.3979C16.9982 12.0394 16.7073 11.7485 16.3488 11.7485H16.3478Z" fill="#190602"/>
<path d="M17.7332 8.68433H8.47717V9.98305H17.7332C18.0917 9.98305 18.3826 9.69221 18.3826 9.33369C18.3826 8.97516 18.0917 8.68433 17.7332 8.68433Z" fill="#190602"/>
<rect x="28" width="10" height="10" rx="2" fill="#FFF8E0"/>
</svg>
