<svg width="22" height="22" viewBox="0 0 22 22" fill="none" xmlns="http://www.w3.org/2000/svg">
<path fill-rule="evenodd" clip-rule="evenodd" d="M11 22C17.0751 22 22 17.0751 22 11C22 4.92487 17.0751 0 11 0C4.92487 0 0 4.92487 0 11C0 17.0751 4.92487 22 11 22ZM15.479 11.5484L17.9321 10.326L18.7776 7.7307L17.0865 6.5H5.82601L3.22229 8.43395H6.75459L4.24377 16.3121H13.7545L14.3908 14.3447H6.9647L8.4968 9.57261L6.9761 8.43395H16.4586L15.7553 10.6107H10.4474L9.93671 12.2014H15.2446L13.7544 16.7809L16.2409 15.5502L17.1283 12.8042L15.4623 11.5819L15.479 11.5484Z" fill="white"/>
</svg>
