<svg width="20" height="20" viewBox="0 0 20 20" fill="none" xmlns="http://www.w3.org/2000/svg">
<path d="M11.2095 5.12615C9.32969 5.12615 7.49477 5.851 6.12305 7.13683C4.61851 8.54754 3.66636 10.6309 3.12058 12.5907C2.76311 13.8732 2.58405 15.2033 2.58405 16.5341C2.58405 16.9365 2.60056 17.3356 2.63228 17.73C2.67126 18.2097 3.13842 18.5421 3.60359 18.4166C4.00929 18.3075 4.43614 18.2487 4.8762 18.2487C5.78012 18.2487 6.6272 18.4945 7.35337 18.924C7.37121 18.9346 7.38839 18.9452 7.40623 18.9551C8.58634 19.6588 9.97855 20.0453 11.4633 19.9958C15.3359 19.8676 18.4996 16.7164 18.6424 12.8444C18.7983 8.60832 15.4113 5.12549 11.2102 5.12549L11.2095 5.12615ZM11.2095 15.9619C9.33233 15.9619 7.81061 14.4401 7.81061 12.5636C7.81061 10.6871 9.33233 9.16468 11.2095 9.16468C13.0867 9.16468 14.6085 10.6864 14.6085 12.5636C14.6085 14.4408 13.0867 15.9619 11.2095 15.9619Z" fill="#14AAFF"/>
<path d="M8.15155 2.78442C8.15155 3.76432 7.63815 4.67352 6.79502 5.17305C6.26576 5.48691 5.76953 5.85759 5.32022 6.27981C4.32314 7.21412 3.57913 8.36053 3.02806 9.49702C2.9197 9.72102 2.58337 9.64173 2.58337 9.39263V2.78442C2.58337 1.24684 3.83022 0 5.36779 0C6.90537 0 8.15221 1.24684 8.15221 2.78442H8.15155Z" fill="#0075FF"/>
</svg>
