<svg width="24" height="24" viewBox="0 0 24 24" fill="none" xmlns="http://www.w3.org/2000/svg">
<path fill-rule="evenodd" clip-rule="evenodd" d="M12 23C18.0751 23 23 18.0751 23 12C23 5.92487 18.0751 1 12 1C5.92487 1 1 5.92487 1 12C1 18.0751 5.92487 23 12 23ZM16.479 12.5484L18.9321 11.326L19.7776 8.7307L18.0865 7.5H6.82601L4.22229 9.43395H7.75459L5.24377 17.3121H14.7545L15.3908 15.3447H7.9647L9.4968 10.5726L7.9761 9.43395H17.4586L16.7553 11.6107H11.4474L10.9367 13.2014H16.2446L14.7544 17.7809L17.2409 16.5502L18.1283 13.8042L16.4623 12.5819L16.479 12.5484Z" fill="white"/>
</svg>
