<svg width="24" height="24" viewBox="0 0 24 24" fill="none" xmlns="http://www.w3.org/2000/svg">
<path fill-rule="evenodd" clip-rule="evenodd" d="M12 24C18.6274 24 24 18.6274 24 12C24 5.37258 18.6274 0 12 0C5.37258 0 0 5.37258 0 12C0 18.6274 5.37258 24 12 24ZM6.77549 10.3977C6.23182 9.88277 5.84632 9.21448 5.84632 8.41815L5.84769 8.33393C5.89151 6.98091 7.00556 5.8922 8.35652 5.84906H16.9758C17.2018 5.85659 17.3832 6.01887 17.3832 6.24757V13.5385C17.5825 13.5748 17.6777 13.5988 17.8687 13.6686C18.018 13.7227 18.2303 13.8432 18.2303 13.8432V6.24757C18.2172 5.556 17.6701 5 16.9765 5H8.35721C6.49818 5.03081 5 6.54953 5 8.41815C5 9.50344 5.49369 10.4278 6.3044 11.0797L6.32018 11.0925C6.36969 11.1333 6.42595 11.1796 6.55706 11.179C6.8111 11.1783 6.98913 10.979 6.97885 10.7579C6.97022 10.5813 6.89788 10.5128 6.78615 10.4071L6.77549 10.3977ZM16.7557 14.0219H9.99472C9.54075 14.026 9.17374 14.3951 9.17374 14.8498V15.8193C9.18675 16.2685 9.56951 16.6533 10.0214 16.6533H10.524V15.8193H10.0214V14.8703H10.2953C11.1485 14.8703 11.7764 15.6646 11.7764 16.5123C11.7764 17.2627 11.093 18.2255 9.94474 18.1481C8.92518 18.0796 8.37809 17.1744 8.37877 16.5123V8.27162C8.37877 7.89913 8.07681 7.59717 7.70432 7.59717H7.03055V8.43801H7.53177V16.5109C7.50643 18.1529 8.70128 18.98 9.94542 18.98L16.755 18.9999C18.1279 18.9999 19.2412 17.8852 19.2412 16.5102C19.2412 15.1353 18.1286 14.0206 16.755 14.0206L16.7557 14.0219ZM18.3942 16.5657C18.3662 17.4476 17.6431 18.1536 16.7557 18.1536L12.0167 18.1351C12.3954 17.6982 12.6234 17.1299 12.6234 16.5116C12.6234 15.5386 12.0434 14.8696 12.0434 14.8696H16.7557C17.6609 14.8696 18.3949 15.6043 18.3949 16.5116L18.3942 16.5657ZM14.9365 7.75024H9.84079V8.59109H14.9372C15.1693 8.59109 15.3576 8.40279 15.3576 8.17066C15.3576 7.93854 15.1686 7.75024 14.9365 7.75024ZM14.9365 11.7173H9.84079V12.5581H14.9372C15.1693 12.5581 15.3576 12.3698 15.3576 12.1377C15.3576 11.9056 15.1686 11.7173 14.9365 11.7173ZM15.8335 9.73389H9.84079V10.5747H15.8335C16.0656 10.5747 16.2539 10.3864 16.2539 10.1543C16.2539 9.92219 16.0656 9.73389 15.8335 9.73389Z" fill="white"/>
</svg>
