<svg width="20" height="20" viewBox="0 0 20 20" fill="none" xmlns="http://www.w3.org/2000/svg">
<path d="M11.2095 5.12615C9.32966 5.12615 7.49474 5.851 6.12302 7.13683C4.61848 8.54754 3.66633 10.6309 3.12055 12.5907C2.76308 13.8732 2.58401 15.2033 2.58401 16.5341C2.58401 16.9365 2.60053 17.3356 2.63225 17.73C2.67123 18.2097 3.13839 18.5421 3.60356 18.4166C4.00926 18.3075 4.43611 18.2487 4.87617 18.2487C5.78008 18.2487 6.62717 18.4945 7.35334 18.924C7.37118 18.9346 7.38836 18.9452 7.4062 18.9551C8.58631 19.6588 9.97852 20.0453 11.4632 19.9958C15.3359 19.8676 18.4996 16.7164 18.6423 12.8444C18.7983 8.60832 15.4112 5.12549 11.2102 5.12549L11.2095 5.12615ZM11.2095 15.9619C9.3323 15.9619 7.81058 14.4401 7.81058 12.5636C7.81058 10.6871 9.3323 9.16468 11.2095 9.16468C13.0867 9.16468 14.6084 10.6864 14.6084 12.5636C14.6084 14.4408 13.0867 15.9619 11.2095 15.9619Z" fill="white"/>
<path d="M8.15152 2.78442C8.15152 3.76432 7.63812 4.67352 6.79499 5.17305C6.26573 5.48691 5.7695 5.85759 5.32019 6.27981C4.32311 7.21412 3.5791 8.36053 3.02803 9.49702C2.91967 9.72102 2.58334 9.64173 2.58334 9.39263V2.78442C2.58334 1.24684 3.83019 0 5.36776 0C6.90534 0 8.15218 1.24684 8.15218 2.78442H8.15152Z" fill="white"/>
</svg>
